<svg fill="none" height="512" viewBox="0 0 1000 1000" width="512" xmlns="http://www.w3.org/2000/svg"><path d="m460 60h80v40h-80z" fill="#f7dbb5"/><path d="m460 20h80v40h-80z" fill="#edab50"/><path d="m460 180v-40h-40v-80h40v40h80v-40h40v80h-40v40z" fill="#edab50"/><g fill="#e07438"><path d="m420 20h40v40h-40z"/><path d="m420 140h-40v-80h40z"/><path d="m420 140h40v40h-40z"/><path d="m540 20h40v40h-40z"/><path d="m580 140h40v-80h-40z"/><path d="m580 140v40h-40v-40z"/></g><path d="m380 180h80v40h80v-40h80v40h-40v40h-160v-40h-40z" fill="#622461"/><path d="m460 180h80v40h-80z" fill="#3b1443"/><path d="m340 220v40h80v40h160v-40h80v-40h-80v40h-160v-40z" fill="#3b1443"/><path d="m260 380h160v40h40v80h-40v-40h-40v-40h-80v40h-40v40h-40v-80h40z" fill="#00cdf9"/><path d="m580 380v40h-40v80h40v-40h40v-40h80v40h40v40h40v-80h-40v-40z" fill="#00cdf9"/><path d="m220 500h40v40h40v40h80v-40h40v-40h40v80h-40v40h-160v-40h-40z" fill="#0098dc"/><path d="m580 500h-40v80h40v40h160v-40h40v-80h-40v40h-40v40h-80v-40h-40z" fill="#0098dc"/><path d="m20 500h80v80h-80z" fill="#ea323c"/><path d="m900 500v80h80v-80z" fill="#ea323c"/><path d="m460 580v80h80v-80z" fill="#ea323c"/><path d="m20 460h80v40h-80z" fill="#891e2b"/><path d="m900 460v40h80v-40z" fill="#891e2b"/><path d="m20 580v80h40v-40h40v-40z" fill="#891e2b"/><path d="m900 580v40h40v40h40v-80z" fill="#891e2b"/><path d="m420 620h40v40h-40z" fill="#891e2b"/><path d="m580 620h-40v40h40z" fill="#891e2b"/><path d="m60 620h40v120h-80v-80h40z" fill="#571c27"/><path d="m900 620h40v40h40v80h-80z" fill="#571c27"/><path d="m220 260h160v40h240v-40h160v40h80v240h-40v40h-40v-160h-40v-40h-160v40h-40v120h-80v-120h-40v-40h-160v40h-40v160h-40v-40h-40v-240h80z" fill="#c7cfdd"/><path d="m260 500v40h40v40h80v-40h40v-40z" fill="#c7cfdd"/><path d="m580 500v40h40v40h80v-40h40v-40z" fill="#c7cfdd"/><path d="m340 740v40h80v-40z" fill="#c7cfdd"/><path d="m460 740v40h80v-40z" fill="#c7cfdd"/><path d="m580 740v40h80v-40z" fill="#c7cfdd"/><path d="m300 420h80v40h40v40h-160v-40h40z" fill="#fff"/><path d="m620 420v40h-40v40h160v-40h-40v-40z" fill="#fff"/><path d="m340 780v40h80v-40z" fill="#fff"/><path d="m460 780v40h80v-40z" fill="#fff"/><path d="m580 780v40h80v-40z" fill="#fff"/><path d="m180 260h40v40h-40z" fill="#92a1b9"/><path d="m780 260h40v40h-40z" fill="#92a1b9"/><path clip-rule="evenodd" d="m180 540h-40v200h40v80h40v80h560v-80h40v-80h40v-200h-40v40h-80v40h-160v-40h-40v-40h-80v40h-40v40h-160v-40h-80zm240 80h40v-40h80v40h40v40h-160zm240 200v40h-320v-40h-40v-80h40v-40h320v40h40v80z" fill="#92a1b9" fill-rule="evenodd"/><path d="m180 220h160v40h-160z" fill="#657392"/><path d="m140 300v-40h40v40z" fill="#657392"/><path d="m140 740h-40v-440h40z" fill="#657392"/><path d="m780 900h-560v-80h-40v-80h-40v120h40v80h640v-80h40v-120h40v-440h-40v-40h-40v-40h-160v40h160v40h40v440h-40v80h-40z" fill="#657392"/><path d="m380 260h40v40h-40z" fill="#657392"/><path d="m620 260h-40v40h40z" fill="#657392"/><path clip-rule="evenodd" d="m340 700h320v40h-80v80h80v40h-320v-40h80v-80h-80zm200 120v-80h-80v80z" fill="#424c6e" fill-rule="evenodd"/><path d="m340 740v80h-40v-80z" fill="#424c6e"/><path d="m660 820v-80h40v80z" fill="#424c6e"/><path d="m140 740h-40v160h40v40h40v40h640v-40h40v-40h40v-160h-40v120h-40v80h-640v-80h-40z" fill="#424c6e"/></svg>